<?xml version="1.0" encoding="UTF-8" standalone="no" ?>
<!DOCTYPE svg PUBLIC "-//W3C//DTD SVG 1.1//EN" "http://www.w3.org/Graphics/SVG/1.1/DTD/svg11.dtd">
<svg xmlns="http://www.w3.org/2000/svg" xmlns:xlink="http://www.w3.org/1999/xlink" version="1.1" width="87.8" height="83.6" xml:space="preserve">
<desc>Created with Fabric.js 1.6.0-rc.1</desc>
<defs></defs>
<g style="stroke: none; stroke-width: 1; stroke-dasharray: none; stroke-linecap: butt; stroke-linejoin: miter; stroke-miterlimit: 10; fill: none; fill-rule: nonzero; opacity: 1;" transform="translate(10 10) scale(0.6 0.6)" >
  <polygon points="44.09,90 41.76,96 69.75,96 67.43,90 " style="stroke: none; stroke-width: 1; stroke-dasharray: none; stroke-linecap: butt; stroke-linejoin: miter; stroke-miterlimit: 10; fill: #FFE101; fill-rule: nonzero; opacity: 1;" transform="  matrix(1 0 0 1 0 0) "/>
  <path d="M 36.296 99 C 36.09 100 36 100.505 36 101.912 V 102 h 40 v -0.088 c 0 -1.407 -0.575 -1.912 -0.78 -2.912 H 36.296 z" style="stroke: none; stroke-width: 1; stroke-dasharray: none; stroke-linecap: butt; stroke-linejoin: miter; stroke-miterlimit: 10; fill: #2AB9F7; fill-rule: nonzero; opacity: 1;" transform=" matrix(1 0 0 1 0 0) " stroke-linecap="round" />
  <path d="M 3 85.604 C 3 86.275 3.173 87 3.845 87 h 38.173 H 69.5 h 38.173 c 0.669 0 1.327 -0.725 1.327 -1.396 V 79 H 3 V 85.604 z" style="stroke: none; stroke-width: 1; stroke-dasharray: none; stroke-linecap: butt; stroke-linejoin: miter; stroke-miterlimit: 10; fill: #2AB9F7; fill-rule: nonzero; opacity: 1;" transform=" matrix(1 0 0 1 0 0) " stroke-linecap="round" />
  <path d="M 107.673 10 H 3.845 C 3.173 10 3 11.028 3 11.701 V 76 h 106 V 11.701 C 109 11.028 108.342 10 107.673 10 z M 105 73 H 7 V 13 h 98 V 73 z" style="stroke: none; stroke-width: 1; stroke-dasharray: none; stroke-linecap: butt; stroke-linejoin: miter; stroke-miterlimit: 10; fill: #2AB9F7; fill-rule: nonzero; opacity: 1;" transform=" matrix(1 0 0 1 0 0) " stroke-linecap="round" />
  <path d="M 107.673 7 H 3.845 C 1.519 7 0 9.374 0 11.701 v 64.596 v 3 v 6.307 C 0 87.93 1.519 90 3.845 90 h 37.039 l -2.464 6 h -2.376 C 34.094 96 33 98.628 33 101.912 V 105 h 46 v -3.088 C 79 98.628 77.42 96 75.472 96 h -2.376 l -2.462 -6 h 37.039 c 2.323 0 4.327 -2.07 4.327 -4.396 v -6.307 v -3 V 11.701 C 112 9.374 109.997 7 107.673 7 z M 109 85.604 c 0 0.672 -0.658 1.396 -1.327 1.396 H 69.5 H 42.019 H 3.845 C 3.173 87 3 86.275 3 85.604 V 79 h 106 V 85.604 z M 41.763 96 l 2.328 -6 h 23.337 l 2.327 6 H 41.763 z M 3 76 V 11.701 C 3 11.028 3.173 10 3.845 10 h 103.828 c 0.669 0 1.327 1.028 1.327 1.701 V 76 H 3 z M 76 102 H 36 v -0.088 c 0 -1.407 0.09 -1.912 0.296 -2.912 H 75.22 c 0.205 1 0.78 1.505 0.78 2.912 V 102 z" style="stroke: none; stroke-width: 1; stroke-dasharray: none; stroke-linecap: butt; stroke-linejoin: miter; stroke-miterlimit: 10; fill: rgb(0,0,0); fill-rule: nonzero; opacity: 1;" transform=" matrix(1 0 0 1 0 0) " stroke-linecap="round" />
  <path d="M 102 16 H 10 v 54 h 92 V 16 z M 85.307 41.027 c -0.991 0 -1.926 -0.24 -2.758 -0.655 L 68.125 53.643 c 0.407 0.825 0.641 1.749 0.641 2.728 c 0 3.418 -2.781 6.199 -6.199 6.199 s -6.199 -2.781 -6.199 -6.199 c 0 -1.56 0.584 -2.984 1.539 -4.075 L 47.52 40.301 c -0.867 0.462 -1.856 0.727 -2.905 0.727 c -0.924 0 -1.799 -0.209 -2.588 -0.573 L 32.486 52.26 c 0.974 1.096 1.572 2.533 1.572 4.111 c 0 3.418 -2.781 6.199 -6.199 6.199 s -6.199 -2.781 -6.199 -6.199 s 2.781 -6.199 6.199 -6.199 c 0.754 0 1.473 0.142 2.142 0.389 l 9.687 -11.985 c -0.795 -1.042 -1.273 -2.339 -1.273 -3.748 c 0 -3.418 2.781 -6.199 6.199 -6.199 s 6.199 2.781 6.199 6.199 c 0 1.283 -0.392 2.477 -1.063 3.467 l 10.633 12.281 c 0.68 -0.257 1.414 -0.404 2.182 -0.404 c 1.352 0 2.601 0.44 3.62 1.178 l 14.067 -12.942 c -0.719 -1.012 -1.147 -2.246 -1.147 -3.579 c 0 -3.418 2.781 -6.199 6.199 -6.199 s 6.199 2.781 6.199 6.199 S 88.725 41.027 85.307 41.027 z" style="stroke: none; stroke-width: 1; stroke-dasharray: none; stroke-linecap: butt; stroke-linejoin: miter; stroke-miterlimit: 10; fill: #FFFFFF; fill-rule: nonzero; opacity: 1;" transform=" matrix(1 0 0 1 0 0) " stroke-linecap="round" />
  <path d="M 7 73 h 98 V 13 H 7 V 73 z M 10 16 h 92 v 54 H 10 V 16 z" style="stroke: none; stroke-width: 1; stroke-dasharray: none; stroke-linecap: butt; stroke-linejoin: miter; stroke-miterlimit: 10; fill: rgb(0,0,0); fill-rule: nonzero; opacity: 1;" transform=" matrix(1 0 0 1 0 0) " stroke-linecap="round" />
  <path d="M 27.859 53.172 c -1.764 0 -3.199 1.436 -3.199 3.199 s 1.435 3.199 3.199 3.199 s 3.199 -1.436 3.199 -3.199 S 29.623 53.172 27.859 53.172 z" style="stroke: none; stroke-width: 1; stroke-dasharray: none; stroke-linecap: butt; stroke-linejoin: miter; stroke-miterlimit: 10; fill: #FF422C; fill-rule: nonzero; opacity: 1;" transform=" matrix(1 0 0 1 0 0) " stroke-linecap="round" />
  <path d="M 47.814 34.828 c 0 -1.764 -1.435 -3.199 -3.199 -3.199 s -3.199 1.436 -3.199 3.199 s 1.435 3.199 3.199 3.199 S 47.814 36.592 47.814 34.828 z" style="stroke: none; stroke-width: 1; stroke-dasharray: none; stroke-linecap: butt; stroke-linejoin: miter; stroke-miterlimit: 10; fill: #FF422C; fill-rule: nonzero; opacity: 1;" transform=" matrix(1 0 0 1 0 0) " stroke-linecap="round" />
  <path d="M 62.567 53.172 c -1.764 0 -3.199 1.436 -3.199 3.199 s 1.435 3.199 3.199 3.199 s 3.199 -1.436 3.199 -3.199 S 64.331 53.172 62.567 53.172 z" style="stroke: none; stroke-width: 1; stroke-dasharray: none; stroke-linecap: butt; stroke-linejoin: miter; stroke-miterlimit: 10; fill: #FF422C; fill-rule: nonzero; opacity: 1;" transform=" matrix(1 0 0 1 0 0) " stroke-linecap="round" />
  <path d="M 85.307 31.629 c -1.764 0 -3.199 1.436 -3.199 3.199 s 1.435 3.199 3.199 3.199 s 3.199 -1.436 3.199 -3.199 S 87.071 31.629 85.307 31.629 z" style="stroke: none; stroke-width: 1; stroke-dasharray: none; stroke-linecap: butt; stroke-linejoin: miter; stroke-miterlimit: 10; fill: #FF422C; fill-rule: nonzero; opacity: 1;" transform=" matrix(1 0 0 1 0 0) " stroke-linecap="round" />
  <path d="M 85.307 28.629 c -3.418 0 -6.199 2.781 -6.199 6.199 c 0 1.333 0.427 2.567 1.147 3.579 L 66.187 51.349 c -1.02 -0.737 -2.268 -1.178 -3.62 -1.178 c -0.769 0 -1.503 0.147 -2.182 0.404 L 49.751 38.295 c 0.671 -0.99 1.063 -2.184 1.063 -3.467 c 0 -3.418 -2.781 -6.199 -6.199 -6.199 s -6.199 2.781 -6.199 6.199 c 0 1.409 0.478 2.706 1.273 3.748 l -9.687 11.985 c -0.669 -0.247 -1.388 -0.389 -2.142 -0.389 c -3.418 0 -6.199 2.781 -6.199 6.199 s 2.781 6.199 6.199 6.199 s 6.199 -2.781 6.199 -6.199 c 0 -1.578 -0.598 -3.016 -1.572 -4.111 l 9.541 -11.806 c 0.789 0.364 1.663 0.573 2.588 0.573 c 1.05 0 2.038 -0.264 2.905 -0.727 l 10.386 11.996 c -0.955 1.091 -1.539 2.514 -1.539 4.075 c 0 3.418 2.781 6.199 6.199 6.199 s 6.199 -2.781 6.199 -6.199 c 0 -0.98 -0.235 -1.904 -0.641 -2.728 l 14.424 -13.271 c 0.832 0.416 1.766 0.655 2.758 0.655 c 3.418 0 6.199 -2.781 6.199 -6.199 S 88.725 28.629 85.307 28.629 z M 85.307 38.027 c -1.764 0 -3.199 -1.436 -3.199 -3.199 s 1.435 -3.199 3.199 -3.199 s 3.199 1.436 3.199 3.199 S 87.071 38.027 85.307 38.027 z M 62.567 59.57 c -1.764 0 -3.199 -1.436 -3.199 -3.199 s 1.435 -3.199 3.199 -3.199 s 3.199 1.436 3.199 3.199 S 64.331 59.57 62.567 59.57 z M 41.416 34.828 c 0 -1.764 1.435 -3.199 3.199 -3.199 s 3.199 1.436 3.199 3.199 s -1.435 3.199 -3.199 3.199 S 41.416 36.592 41.416 34.828 z M 27.859 59.57 c -1.764 0 -3.199 -1.436 -3.199 -3.199 s 1.435 -3.199 3.199 -3.199 s 3.199 1.436 3.199 3.199 S 29.623 59.57 27.859 59.57 z" style="stroke: none; stroke-width: 1; stroke-dasharray: none; stroke-linecap: butt; stroke-linejoin: miter; stroke-miterlimit: 10; fill: rgb(0,0,0); fill-rule: nonzero; opacity: 1;" transform=" matrix(1 0 0 1 0 0) " stroke-linecap="round" />
</g>
</svg>